<?xml version="1.0" encoding="utf-8"?>
<!-- Generator: Adobe Illustrator 15.0.0, SVG Export Plug-In . SVG Version: 6.00 Build 0)  -->
<!DOCTYPE svg PUBLIC "-//W3C//DTD SVG 1.1//EN" "http://www.w3.org/Graphics/SVG/1.1/DTD/svg11.dtd">
<svg version="1.1" id="Capa_1" xmlns="http://www.w3.org/2000/svg" xmlns:xlink="http://www.w3.org/1999/xlink" x="0px" y="0px"
	 width="612px" height="612px" viewBox="0 0 612 612" enable-background="new 0 0 612 612" xml:space="preserve">
<g>
	<g id="Left">
		<g>
			<path fill="#D3D3D3" d="M353.812,172.125c-7.479,0-14.211,2.926-19.336,7.612l-0.058-0.077L219.67,284.848
				c-5.91,5.451-9.295,13.101-9.295,21.152s3.385,15.701,9.295,21.152L334.42,432.34l0.059-0.076
				c5.125,4.687,11.856,7.611,19.334,7.611c15.836,0,28.688-12.852,28.688-28.688c0-8.357-3.634-15.837-9.353-21.076l0.058-0.076
				L281.52,306l91.685-84.054l-0.059-0.077c5.72-5.221,9.354-12.68,9.354-21.057C382.5,184.977,369.648,172.125,353.812,172.125z
				 M306,0C137.012,0,0,137.012,0,306c0,168.988,137.012,306,306,306c168.988,0,306-137.012,306-306C612,137.012,474.988,0,306,0z
				 M306,554.625C168.912,554.625,57.375,443.088,57.375,306S168.912,57.375,306,57.375S554.625,168.912,554.625,306
				S443.088,554.625,306,554.625z"/>
		</g>
	</g>
</g>
</svg>
