<?xml version="1.0" encoding="utf-8"?>
<!-- Generator: Adobe Illustrator 15.0.0, SVG Export Plug-In . SVG Version: 6.00 Build 0)  -->
<!DOCTYPE svg PUBLIC "-//W3C//DTD SVG 1.1//EN" "http://www.w3.org/Graphics/SVG/1.1/DTD/svg11.dtd">
<svg version="1.1" id="Layer_1" xmlns="http://www.w3.org/2000/svg" xmlns:xlink="http://www.w3.org/1999/xlink" x="0px" y="0px"
	 width="100px" height="100px" viewBox="0 0 100 100" enable-background="new 0 0 100 100" xml:space="preserve">
<g>
	<path fill="#FFFFFF" d="M30.086,50.615c0-2.488-1.729-3.973-4.779-3.973c-1.244,0-2.087,0.12-2.53,0.24v7.992
		c0.523,0.119,1.165,0.16,2.046,0.16C28.078,55.034,30.086,53.39,30.086,50.615z"/>
	<path fill="#FFFFFF" d="M48.966,46.723c-1.367,0-2.249,0.12-2.773,0.24v17.711c0.523,0.122,1.366,0.122,2.13,0.122
		c5.542,0.038,9.156-3.013,9.156-9.478C57.521,49.693,54.227,46.723,48.966,46.723z"/>
	<path fill="#FFFFFF" d="M85.142,36.316h-2.219v-10.71c0-0.066-0.012-0.134-0.019-0.202c-0.004-0.425-0.141-0.842-0.432-1.174
		L64.65,3.87c-0.007-0.004-0.012-0.006-0.016-0.012c-0.105-0.119-0.229-0.217-0.359-0.303c-0.04-0.026-0.079-0.048-0.118-0.07
		c-0.115-0.062-0.236-0.114-0.358-0.15c-0.034-0.009-0.064-0.023-0.098-0.032c-0.136-0.031-0.275-0.052-0.416-0.052H19.481
		c-2,0-3.625,1.627-3.625,3.625v29.44h-2.219c-2.861,0-5.182,2.319-5.182,5.182v26.945c0,2.859,2.321,5.18,5.182,5.18h2.219v18.444
		c0,1.999,1.625,3.625,3.625,3.625h59.816c1.999,0,3.625-1.626,3.625-3.625V73.622h2.219c2.861,0,5.183-2.32,5.183-5.18V41.499
		C90.324,38.635,88.003,36.316,85.142,36.316z M19.481,6.876h41.991v18.547c0,1.002,0.813,1.813,1.812,1.813h16.013v9.081H19.481
		V6.876z M63.984,55.114c0,5.183-1.888,8.756-4.501,10.966c-2.848,2.367-7.187,3.492-12.486,3.492c-3.172,0-5.421-0.2-6.949-0.4
		V42.584c2.25-0.36,5.183-0.562,8.275-0.562c5.139,0,8.473,0.925,11.084,2.892C62.218,47.003,63.984,50.334,63.984,55.114z
		 M16.713,69.29V42.584c1.886-0.319,4.539-0.562,8.274-0.562c3.774,0,6.465,0.723,8.272,2.17c1.728,1.365,2.889,3.614,2.889,6.265
		s-0.881,4.899-2.489,6.424c-2.088,1.968-5.18,2.854-8.795,2.854c-0.802,0-1.527-0.042-2.087-0.122v9.679h-6.063V69.29z
		 M79.298,91.085H19.481V73.622h59.816V91.085L79.298,91.085z M84.551,47.244H74.146v6.185h9.72v4.98h-9.72v10.883h-6.141V42.224
		h16.545V47.244z"/>
</g>
</svg>
