<?xml version="1.0" encoding="utf-8"?>
<!-- Generator: Adobe Illustrator 15.0.0, SVG Export Plug-In . SVG Version: 6.00 Build 0)  -->
<!DOCTYPE svg PUBLIC "-//W3C//DTD SVG 1.1//EN" "http://www.w3.org/Graphics/SVG/1.1/DTD/svg11.dtd">
<svg version="1.1" id="Layer_1" xmlns="http://www.w3.org/2000/svg" xmlns:xlink="http://www.w3.org/1999/xlink" x="0px" y="0px"
	 width="100px" height="100px" viewBox="0 0 100 100" enable-background="new 0 0 100 100" xml:space="preserve">
<g>
	<path fill="#FFFFFF" d="M96.479,13.639H3.521C2.681,13.639,2,14.32,2,15.16v72.68c0,0.84,0.681,1.521,1.521,1.521h92.958
		c0.84,0,1.521-0.681,1.521-1.521V15.16C98,14.32,97.319,13.639,96.479,13.639z M88.874,77.234L67.955,55.57
		c-0.231-0.238-0.609-0.254-0.858-0.034L52.588,68.307L34.043,45.473c-0.121-0.149-0.297-0.234-0.496-0.23
		c-0.192,0.004-0.371,0.096-0.486,0.25L11.126,74.926v-52.16h77.748V77.234L88.874,77.234z"/>
	<path fill="#FFFFFF" d="M65.9,44.736c4.118,0,7.462-3.341,7.462-7.462c0-4.121-3.344-7.463-7.462-7.463
		c-4.122,0-7.462,3.343-7.462,7.463C58.438,41.395,61.779,44.736,65.9,44.736z"/>
</g>
</svg>
