<?xml version="1.0" encoding="utf-8"?>
<!-- Generator: Adobe Illustrator 15.0.0, SVG Export Plug-In . SVG Version: 6.00 Build 0)  -->
<!DOCTYPE svg PUBLIC "-//W3C//DTD SVG 1.1//EN" "http://www.w3.org/Graphics/SVG/1.1/DTD/svg11.dtd">
<svg version="1.1" id="Capa_1" xmlns="http://www.w3.org/2000/svg" xmlns:xlink="http://www.w3.org/1999/xlink" x="0px" y="0px"
	 width="792px" height="612px" viewBox="0 0 792 612" enable-background="new 0 0 792 612" xml:space="preserve">
<g>
	<path fill="#FFFFFF" d="M496.941,294.035l-127.081-92.377c-4.664-3.381-10.854-3.89-15.966-1.263
		c-5.152,2.606-8.37,7.901-8.37,13.624v184.693c0,5.784,3.218,11.059,8.37,13.666c2.179,1.1,4.562,1.649,6.965,1.649
		c3.136,0,6.313-0.998,9.001-2.974l127.081-92.296c4.012-2.953,6.354-7.515,6.354-12.361
		C503.315,301.469,500.912,296.927,496.941,294.035z"/>
	<path fill="#FFFFFF" d="M396.01,0.041C226.978,0.041,90,137.018,90,306.051c0,168.972,136.978,305.908,306.01,305.908
		c168.992,0,305.99-136.957,305.99-305.908C702.021,137.018,565.002,0.041,396.01,0.041z M396.01,560.903
		c-140.765,0-254.893-114.066-254.893-254.853c0-140.725,114.127-254.934,254.893-254.934
		c140.746,0,254.853,114.188,254.853,254.934C650.883,446.837,536.756,560.903,396.01,560.903z"/>
</g>
</svg>
