<?xml version="1.0" encoding="utf-8"?>
<!-- Generator: Adobe Illustrator 15.0.0, SVG Export Plug-In . SVG Version: 6.00 Build 0)  -->
<!DOCTYPE svg PUBLIC "-//W3C//DTD SVG 1.1//EN" "http://www.w3.org/Graphics/SVG/1.1/DTD/svg11.dtd">
<svg version="1.1" id="Layer_1" xmlns="http://www.w3.org/2000/svg" xmlns:xlink="http://www.w3.org/1999/xlink" x="0px" y="0px"
	 width="100px" height="100px" viewBox="0 0 100 100" enable-background="new 0 0 100 100" xml:space="preserve">
<g>
	<path fill="#FFFFFF" d="M3.333,4.182v89.752h93.333V4.182H3.333z M54.975,12.359h11.058v9.454H54.975V12.359L54.975,12.359z
		 M33.968,12.359h11.059v9.454H33.968V12.359z M24.021,85.754H12.962v-9.455h11.059V85.754z M24.021,21.813H12.962v-9.454h11.059
		V21.813z M45.026,85.754H33.968v-9.455h11.058V85.754z M66.032,85.754H54.975v-9.455h11.058V85.754z M50,65.636
		c-9.158,0-16.582-7.423-16.582-16.577c0-9.158,7.423-16.583,16.582-16.583c9.16,0,16.582,7.424,16.582,16.583
		C66.582,58.213,59.16,65.636,50,65.636z M87.039,85.754h-11.06v-9.455h11.06V85.754z M87.039,21.813h-11.06v-9.454h11.06V21.813z"
		/>
	<g>
		<polygon fill="#FFFFFF" points="46.217,39.595 46.217,58.515 58.438,49.059 		"/>
	</g>
</g>
</svg>
